<svg width="174" height="115" viewBox="0 0 174 115" fill="none" xmlns="http://www.w3.org/2000/svg">
<g id="Image 48">
<g clip-path="url(#clip0_2288_15234)">
<g id="Group">
<g id="Group_2">
<g id="Group_3">
<g id="Group_4">
<g id="Group_5">
<path id="Vector" d="M115.112 114.393H41.3882C38.858 114.393 36.8066 112.342 36.8066 109.812V12.4283C36.8066 9.8982 38.858 7.84668 41.3882 7.84668H115.112C117.642 7.84668 119.693 9.8982 119.693 12.4283V109.812C119.693 112.342 117.642 114.393 115.112 114.393Z" fill="#1D2238"/>
</g>
<g id="Group_6">
<path id="Vector_2" d="M114.531 108.05H41.9697V14.1914H114.531V108.05Z" fill="white"/>
</g>
<g id="Group_7">
<path id="Vector_3" d="M78.2498 6.59811C77.1545 6.59811 76.2665 5.70999 76.2665 4.61484C76.2665 3.519 77.1545 2.63084 78.2498 2.63084C79.3457 2.63084 80.2337 3.519 80.2337 4.61484C80.2337 5.70999 79.3457 6.59811 78.2498 6.59811ZM83.8736 5.70777C83.8412 2.62937 81.3368 0.142578 78.2498 0.142578C75.1634 0.142578 72.6587 2.62937 72.6266 5.70777H67.415V14.6185H89.0849V5.70777H83.8736Z" fill="#6395EC"/>
</g>
<g id="Group_8">
<path id="Vector_4" d="M111.667 26.6808H62.5518V23.6802H111.667V26.6808Z" fill="#F1F2F5"/>
</g>
<g id="Group_9">
<path id="Vector_5" d="M111.667 32.5903H62.5518V29.5903H111.667V32.5903Z" fill="#F1F2F5"/>
</g>
<g id="Group_10">
<path id="Vector_6" d="M86.3388 38.4996H62.4033V35.499H86.3388V38.4996Z" fill="#F1F2F5"/>
</g>
<g id="Group_11">
<path id="Vector_7" d="M46.7334 38.2287H59.6661V23.9516H46.7334V38.2287ZM60.1065 38.6691H46.293V23.5112H60.1065V38.6691Z" fill="#9EA9BD"/>
</g>
<g id="Group_12">
<path id="Vector_8" d="M51.3955 26.3961L54.6331 30.8985L63.5578 22.5044L65.1418 24.5515L54.1702 35.0346L49.4395 28.176L51.3955 26.3961Z" fill="#6395EC"/>
</g>
<g id="Group_13">
<path id="Vector_9" d="M111.667 46.1813H62.5518V43.1807H111.667V46.1813Z" fill="#F1F2F5"/>
</g>
<g id="Group_14">
<path id="Vector_10" d="M111.667 52.09H62.5518V49.0903H111.667V52.09Z" fill="#F1F2F5"/>
</g>
<g id="Group_15">
<path id="Vector_11" d="M86.3388 57.999H62.4033V54.999H86.3388V57.999Z" fill="#F1F2F5"/>
</g>
<g id="Group_16">
<path id="Vector_12" d="M46.7334 57.728H59.6661V43.4516H46.7334V57.728ZM60.1065 58.1684H46.293V43.0112H60.1065V58.1684Z" fill="#9EA9BD"/>
</g>
<g id="Group_17">
<path id="Vector_13" d="M51.3955 45.8954L54.6331 50.3984L63.5578 42.0044L65.1418 44.0507L54.1702 54.5345L49.4395 47.6759L51.3955 45.8954Z" fill="#6395EC"/>
</g>
<g id="Group_18">
<path id="Vector_14" d="M111.667 65.6804H62.5518V62.6807H111.667V65.6804Z" fill="#F1F2F5"/>
</g>
<g id="Group_19">
<path id="Vector_15" d="M111.667 71.5904H62.5518V68.5898H111.667V71.5904Z" fill="#F1F2F5"/>
</g>
<g id="Group_20">
<path id="Vector_16" d="M86.3388 77.4995H62.4033V74.4995H86.3388V77.4995Z" fill="#F1F2F5"/>
</g>
<g id="Group_21">
<path id="Vector_17" d="M46.7334 77.2285H59.6661V62.9521H46.7334V77.2285ZM60.1065 77.6689H46.293V62.5117H60.1065V77.6689Z" fill="#9EA9BD"/>
</g>
<g id="Group_22">
<path id="Vector_18" d="M51.3955 65.3853L54.6331 69.8886L63.5578 61.4946L65.1418 63.5409L54.1702 74.0238L49.4395 67.1655L51.3955 65.3853Z" fill="#6395EC"/>
</g>
<g id="Group_23">
<path id="Vector_19" d="M111.667 85.1807H62.5518V82.1807H111.667V85.1807Z" fill="#F1F2F5"/>
</g>
<g id="Group_24">
<path id="Vector_20" d="M111.667 91.0898H62.5518V88.0898H111.667V91.0898Z" fill="#F1F2F5"/>
</g>
<g id="Group_25">
<path id="Vector_21" d="M86.3388 96.9894H62.4033V93.9888H86.3388V96.9894Z" fill="#F1F2F5"/>
</g>
<g id="Group_26">
<path id="Vector_22" d="M46.7334 96.7285H59.6661V82.4521H46.7334V96.7285ZM60.1065 97.1689H46.293V82.0117H60.1065V97.1689Z" fill="#9EA9BD"/>
</g>
<g id="Group_27">
<path id="Vector_23" d="M51.3955 84.8857L54.6331 89.3887L63.5578 80.9941L65.1418 83.041L54.1702 93.5242L49.4395 86.6656L51.3955 84.8857Z" fill="#6395EC"/>
</g>
<g id="Group_28">
<path id="Vector_24" d="M157.066 114.756H134.251V91.8442H157.066V114.756Z" fill="#9EA9BD"/>
</g>
<g id="Group_29">
<path id="Vector_25" d="M147.035 95.3937H144.285V91.7661H147.035V95.3937Z" fill="#1D2238"/>
</g>
<g id="Group_30">
<path id="Vector_26" d="M173.638 114.756H157.302V91.8442H173.638V114.756Z" fill="#D2D6E1"/>
</g>
<g id="Group_31">
<path id="Vector_27" d="M166.514 95.3937H164.424V91.7661H166.514V95.3937Z" fill="#1D2238"/>
</g>
<g id="Group_32">
<path id="Vector_28" d="M152.618 91.5557H129.803V47.7065H152.618V91.5557Z" fill="#6395EC"/>
</g>
<g id="Group_33">
<path id="Vector_29" d="M142.585 54.4922H139.835V47.5493H142.585V54.4922Z" fill="#1D2238"/>
</g>
<g id="Group_34">
<path id="Vector_30" d="M169.188 91.5557H152.853V47.7065H169.188V91.5557Z" fill="#6395EC"/>
</g>
<g id="Group_35">
<path id="Vector_31" d="M162.065 54.4922H159.974V47.5493H162.065V54.4922Z" fill="#1D2238"/>
</g>
<g id="Group_36">
<path id="Vector_32" d="M120.352 114.756H91.0088V91.8442H120.352V114.756Z" fill="#6395EC"/>
</g>
<g id="Group_37">
<path id="Vector_33" d="M107.449 95.3937H103.913V91.7661H107.449V95.3937Z" fill="#1D2238"/>
</g>
<g id="Group_38">
<path id="Vector_34" d="M140.068 114.756H120.65V91.8442H140.068V114.756Z" fill="#7BCCC9"/>
</g>
<g id="Group_39">
<path id="Vector_35" d="M132.708 95.3937H129.171V91.7661H132.708V95.3937Z" fill="#1D2238"/>
</g>
<g id="Group_40">
<path id="Vector_36" d="M117.436 91.6457H94.6211V68.7329H117.436V91.6457Z" fill="#D2D6E1"/>
</g>
<g id="Group_41">
<path id="Vector_37" d="M107.406 72.2732H104.656V68.645H107.406V72.2732Z" fill="#1D2238"/>
</g>
<g id="Group_42">
<path id="Vector_38" d="M134.007 91.6457H117.672V68.7329H134.007V91.6457Z" fill="#F1F2F5"/>
</g>
<g id="Group_43">
<path id="Vector_39" d="M126.887 72.2732H124.796V68.645H126.887V72.2732Z" fill="#1D2238"/>
</g>
<g id="Group_44">
<path id="Vector_40" d="M25.1249 46.6636L24.368 47.1691L20.3337 41.1373C20.1939 40.9279 20.2501 40.6447 20.4591 40.5052C20.6681 40.3651 20.951 40.4215 21.0908 40.6309L25.1249 46.6636Z" fill="#1D2238"/>
</g>
<g id="Group_45">
<path id="Vector_41" d="M21.1475 48.2978C21.1475 48.2978 21.4593 45.7061 22.1072 45.5864C22.7552 45.4661 24.6748 45.5144 25.0587 45.5864C25.4427 45.6584 26.4985 46.3301 26.7144 47.0024L22.6111 50.9849L21.1475 48.2978Z" fill="#EB9481"/>
</g>
<g id="Group_46">
<path id="Vector_42" d="M17.2732 26.355C17.2732 26.355 18.0891 27.3606 18.3416 28.7816C18.4421 29.3468 18.2745 29.9215 17.7759 30.2063L14.9922 26.355H17.2732Z" fill="#1D2238"/>
</g>
<g id="Group_47">
<path id="Vector_43" d="M13.2681 25.7119C10.8813 25.7119 8.9269 27.5579 8.75044 29.8994L8.7136 29.8935L7.73362 36.0076C7.51789 37.3537 8.43424 38.62 9.78031 38.8357C11.1264 39.0517 12.1588 39.4339 12.6082 36.7894L12.6777 36.3556C12.8711 36.3805 13.0679 36.3952 13.2681 36.3952C15.7712 36.3952 17.8003 34.3657 17.8003 31.8628V30.2444C17.8003 27.7414 15.7712 25.7119 13.2681 25.7119Z" fill="#EB9481"/>
</g>
<g id="Group_48">
<path id="Vector_44" d="M16.0706 29.451C16.1073 29.5699 16.1335 29.6888 16.1561 29.807C16.169 29.8664 16.1766 29.9259 16.1862 29.9853C16.1956 30.0448 16.2054 30.1042 16.2109 30.1637C16.2249 30.2819 16.2383 30.4007 16.2442 30.5195L16.2562 30.6974L16.2602 30.8756L16.0592 30.6746C16.1348 30.6737 16.2104 30.6695 16.2861 30.671C16.3248 30.6722 16.3547 30.671 16.4202 30.6767C16.4774 30.6842 16.5334 30.6995 16.5863 30.7214C16.8018 30.8102 16.9329 31.0445 16.9191 31.2626C16.9104 31.3718 16.8694 31.4759 16.8044 31.5584C16.7388 31.6412 16.6476 31.6964 16.5533 31.724C16.5057 31.7381 16.4564 31.7417 16.409 31.7402C16.3581 31.7366 16.3245 31.7279 16.2861 31.7198C16.2104 31.703 16.1348 31.6838 16.0591 31.661L16.056 31.6595C16.0502 31.658 16.0468 31.6514 16.0486 31.6457C16.0501 31.6412 16.0544 31.6382 16.0591 31.6382L16.2861 31.6346C16.3238 31.634 16.3623 31.6346 16.3978 31.631C16.4338 31.6265 16.4688 31.6169 16.5023 31.6031C16.6369 31.5479 16.7291 31.4072 16.7267 31.2626C16.7276 31.118 16.6342 30.9791 16.5006 30.9254C16.4675 30.9122 16.4327 30.9035 16.3972 30.8999C16.3625 30.8969 16.3238 30.8984 16.2861 30.8984L16.0592 30.8978H16.0371L16.0373 30.8756C16.0405 30.4007 16.0391 29.9259 16.0478 29.451C16.0478 29.4451 16.053 29.4399 16.0591 29.4399C16.0641 29.4399 16.0682 29.4436 16.0696 29.448L16.0706 29.451Z" fill="#1D2238"/>
</g>
<g id="Group_49">
<path id="Vector_45" d="M17.3353 29.4787C17.3353 29.6527 17.1945 29.7936 17.0206 29.7936C16.8469 29.7936 16.7061 29.6527 16.7061 29.4787C16.7061 29.3055 16.8469 29.1646 17.0206 29.1646C17.1945 29.1646 17.3353 29.3055 17.3353 29.4787Z" fill="#1D2238"/>
</g>
<g id="Group_50">
<path id="Vector_46" d="M16.7399 32.6899C16.7399 32.6899 16.2183 31.9303 14.6982 31.9501L16.7399 32.6899Z" fill="white"/>
</g>
<g id="Group_51">
<path id="Vector_47" d="M16.2259 28.1945C16.1976 28.312 16.4412 28.4712 16.7703 28.5512C17.0993 28.6305 17.389 28.6004 17.4174 28.483C17.4459 28.3655 17.2021 28.2062 16.873 28.1262C16.5441 28.047 16.2543 28.0771 16.2259 28.1945Z" fill="#1D2238"/>
</g>
<g id="Group_52">
<path id="Vector_48" d="M15.4856 29.6305C15.4856 29.8045 15.3448 29.9454 15.171 29.9454C14.9973 29.9454 14.8564 29.8045 14.8564 29.6305C14.8564 29.4573 14.9973 29.3164 15.171 29.3164C15.3448 29.3164 15.4856 29.4573 15.4856 29.6305Z" fill="#1D2238"/>
</g>
<g id="Group_53">
<path id="Vector_49" d="M14.3775 28.6439C14.4077 28.7606 14.6979 28.787 15.0257 28.7026C15.3535 28.6175 15.5947 28.4545 15.5646 28.3378C15.5344 28.2204 15.2442 28.1947 14.9164 28.2791C14.5887 28.3635 14.3474 28.5272 14.3775 28.6439Z" fill="#1D2238"/>
</g>
<g id="Group_54">
<path id="Vector_50" d="M17.0489 32.9012C16.8187 32.8844 16.5996 32.8373 16.3845 32.78C16.2759 32.7545 16.1714 32.7176 16.0649 32.6861C15.9598 32.651 15.856 32.6126 15.7516 32.576C15.6493 32.5334 15.546 32.4938 15.4443 32.4497C15.3439 32.4029 15.2417 32.3603 15.1434 32.3075C14.9447 32.2067 14.75 32.096 14.5662 31.9565L14.5641 31.955C14.5602 31.952 14.5593 31.9463 14.5624 31.9427C14.5649 31.9388 14.5691 31.9382 14.5728 31.9397L15.8174 32.4035L17.0554 32.8844C17.0601 32.8856 17.0624 32.8916 17.0606 32.8961C17.0591 32.8997 17.0553 32.9018 17.0514 32.9018L17.0489 32.9012Z" fill="#1D2238"/>
</g>
<g id="Group_55">
<path id="Vector_51" d="M8.09239 30.2981C8.09239 30.2981 12.0401 26.8196 15.8619 26.8211C15.8619 26.8211 17.5312 26.747 18.1478 28.1614C18.1478 28.1614 17.4123 22.3877 11.0313 23.361C4.65007 24.3343 7.19566 30.8501 7.19566 30.8501L8.09239 30.2981Z" fill="#6395EC"/>
</g>
<g id="Group_56">
<path id="Vector_52" d="M12.5663 27.5557C12.5663 27.5557 11.7889 28.4996 10.1648 30.2157C9.76319 30.6398 9.06737 31.2272 9.06737 31.2272C9.06737 31.2272 9.23501 30.3389 8.93555 29.6916C8.93555 29.6916 10.75 28.2266 12.5663 27.5557Z" fill="#1D2238"/>
</g>
<g id="Group_57">
<path id="Vector_53" d="M15.132 26.7368C15.132 26.7368 15.6315 27.6418 16.9053 27.7042C16.9053 27.7042 14.8699 28.3729 14.0762 26.9577L15.132 26.7368Z" fill="#1D2238"/>
</g>
<g id="Group_58">
<path id="Vector_54" d="M8.35907 31.7802L8.05841 33.5535L7.13477 30.8877L8.68424 29.8843L8.35907 31.7802Z" fill="#1D2238"/>
</g>
<g id="Group_59">
<path id="Vector_55" d="M7.41895 30.5494C7.41895 31.1662 7.82296 31.666 8.32126 31.666C8.81965 31.666 9.22365 31.1662 9.22365 30.5494C9.22365 29.933 8.81965 29.4331 8.32126 29.4331C7.82296 29.4331 7.41895 29.933 7.41895 30.5494Z" fill="#EB9481"/>
</g>
<g id="Group_60">
<path id="Vector_56" d="M8.83773 30.2431C8.75487 30.1756 8.67486 30.1242 8.59383 30.1029C8.55477 30.0904 8.5167 30.0846 8.48079 30.086C8.44527 30.0875 8.4123 30.089 8.38164 30.1014C8.26383 30.1425 8.17464 30.2438 8.12274 30.3774C8.10813 30.4104 8.10015 30.4458 8.09112 30.4809C8.08839 30.4992 8.08356 30.5175 8.08164 30.5361L8.07879 30.564L8.076 30.5844C8.07468 30.5904 8.07525 30.5889 8.07351 30.591C8.07255 30.588 8.07057 30.5865 8.06535 30.5784C8.05722 30.5616 8.02284 30.5403 8.00904 30.5412C7.9821 30.5427 8.02404 30.5529 8.06145 30.5478C8.14236 30.5388 8.24466 30.5169 8.34771 30.5007C8.45151 30.4896 8.56755 30.4737 8.67516 30.5139L8.67855 30.5154C8.68434 30.5175 8.68719 30.5235 8.68506 30.5295C8.68344 30.5337 8.67942 30.5367 8.67516 30.5367C8.57799 30.5412 8.48388 30.5784 8.39199 30.6153C8.2992 30.6519 8.20803 30.693 8.10969 30.7224C8.06058 30.735 8.00832 30.7488 7.9512 30.7341C7.92294 30.7269 7.89609 30.7056 7.88229 30.6792C7.86747 30.6534 7.863 30.6255 7.86099 30.5991C7.85682 30.495 7.87296 30.3921 7.9101 30.2952C7.94733 30.1991 8.00598 30.1103 8.08467 30.0427C8.1621 29.9737 8.26221 29.9275 8.36658 29.9201C8.47089 29.9106 8.57667 29.9422 8.66208 29.9994C8.74761 30.0581 8.81352 30.1411 8.85807 30.2321C8.86071 30.238 8.85843 30.2446 8.853 30.2468C8.84904 30.249 8.84457 30.2483 8.84133 30.2453L8.83773 30.2431Z" fill="#1D2238"/>
</g>
<g id="Group_61">
<path id="Vector_57" d="M13.4863 27.2264C13.4863 27.2264 16.1942 23.5975 19.467 24.4747C22.7399 25.3518 18.205 28.1593 18.205 28.1593C18.205 28.1593 16.9439 26.0344 13.4863 27.2264Z" fill="#F1F2F5"/>
</g>
<g id="Group_62">
<path id="Vector_58" d="M10.7076 23.511C10.7384 23.6703 10.3975 23.8706 9.94625 23.958C9.4949 24.0446 9.10406 23.9866 9.07322 23.8266C9.04241 23.6673 9.38327 23.4677 9.83459 23.3803C10.2859 23.293 10.6768 23.3517 10.7076 23.511Z" fill="#1D2238"/>
</g>
<g id="Group_63">
<path id="Vector_59" d="M12.6586 36.3768C12.6586 36.3768 11.6808 35.8461 10.6406 34.7871C10.6406 34.7871 11.0764 36.2991 12.5891 36.8106L12.6586 36.3768Z" fill="#1D2238"/>
</g>
<g id="Group_64">
<path id="Vector_60" d="M20.4115 109.26L27.2708 112.251C28.2943 112.696 28.9481 113.716 28.9271 114.832L14.0137 114.8L14.8073 109.247L20.4115 109.26Z" fill="#4A4E60"/>
</g>
<g id="Group_65">
<path id="Vector_61" d="M14.0205 113.835C15.2489 113.906 16.4774 113.945 17.7058 113.971C18.3201 113.988 18.9343 113.992 19.5486 114.003L21.3914 114.016L23.2343 114.012C23.8485 114.004 24.4628 114.002 25.0772 113.988C26.3057 113.966 27.5344 113.933 28.763 113.867C27.5347 113.796 26.3062 113.757 25.0777 113.731C24.4635 113.713 23.8492 113.709 23.2349 113.699L21.3921 113.686L19.5493 113.691C18.935 113.699 18.3207 113.701 17.7064 113.715C16.4778 113.736 15.2492 113.769 14.0205 113.835Z" fill="#1D2238"/>
</g>
<g id="Group_66">
<path id="Vector_62" d="M15.7666 111.607C15.765 112.355 16.37 112.963 17.118 112.964C17.8661 112.966 18.4738 112.361 18.4754 111.613C18.477 110.865 17.8719 110.257 17.1239 110.256C16.3759 110.254 15.7682 110.859 15.7666 111.607Z" fill="#1D2238"/>
</g>
<g id="Group_67">
<path id="Vector_63" d="M26.3993 111.716C26.2235 111.643 26.0539 111.642 25.8928 111.668C25.7322 111.696 25.5794 111.758 25.4424 111.847C25.3051 111.936 25.1856 112.059 25.0965 112.203C25.0093 112.349 24.9559 112.523 24.9791 112.708L25.0077 112.725C25.0508 112.666 25.0872 112.603 25.1371 112.551C25.1607 112.523 25.1816 112.494 25.2069 112.467L25.2827 112.39C25.3877 112.291 25.5008 112.2 25.6237 112.123C25.7441 112.043 25.8708 111.971 26.0023 111.909C26.0682 111.878 26.135 111.849 26.2028 111.823C26.2698 111.795 26.3386 111.77 26.4074 111.748L26.3993 111.716Z" fill="#1D2238"/>
</g>
<g id="Group_68">
<path id="Vector_64" d="M24.6308 110.955C24.4549 110.883 24.2854 110.883 24.1243 110.908C23.9637 110.935 23.8108 110.997 23.6739 111.087C23.5366 111.175 23.4171 111.299 23.328 111.443C23.2407 111.588 23.1873 111.763 23.2105 111.948L23.2391 111.964C23.2823 111.906 23.3187 111.843 23.3686 111.79C23.3922 111.763 23.4131 111.733 23.4384 111.708L23.5141 111.63C23.6193 111.531 23.7323 111.44 23.8552 111.363C23.9755 111.283 24.1023 111.211 24.2338 111.149C24.2997 111.118 24.3665 111.089 24.4343 111.063C24.5013 111.034 24.5701 111.01 24.6389 110.988L24.6308 110.955Z" fill="#1D2238"/>
</g>
<g id="Group_69">
<path id="Vector_65" d="M22.9882 110.276C22.8124 110.203 22.6428 110.202 22.4817 110.228C22.3211 110.256 22.1683 110.317 22.0312 110.406C21.8941 110.496 21.7745 110.619 21.6854 110.763C21.5982 110.908 21.5447 111.083 21.5679 111.268L21.5966 111.285C21.6397 111.226 21.676 111.163 21.726 111.111C21.7496 111.083 21.7705 111.053 21.7958 111.027L21.8715 110.95C21.9766 110.851 22.0897 110.76 22.2125 110.682C22.333 110.603 22.4597 110.531 22.5912 110.469C22.657 110.438 22.7239 110.409 22.7917 110.383C22.8587 110.355 22.9275 110.33 22.9963 110.307L22.9882 110.276Z" fill="#1D2238"/>
</g>
<g id="Group_70">
<path id="Vector_66" d="M11.3705 109.26L18.2298 112.251C19.2533 112.696 19.907 113.716 19.8861 114.832L4.97266 114.8L5.76634 109.247L11.3705 109.26Z" fill="#9EA9BD"/>
</g>
<g id="Group_71">
<path id="Vector_67" d="M4.96777 113.835C6.19618 113.906 7.42468 113.945 8.65318 113.971C9.2674 113.988 9.88168 113.992 10.4959 114.003L12.3387 114.016L14.1816 114.012C14.7958 114.004 15.4101 114.002 16.0245 113.988C17.253 113.966 18.4817 113.933 19.7104 113.867C18.482 113.796 17.2535 113.757 16.025 113.731C15.4107 113.713 14.7965 113.709 14.1823 113.699L12.3394 113.686L10.4966 113.691C9.88228 113.699 9.26797 113.701 8.65369 113.715C7.42513 113.736 6.19648 113.769 4.96777 113.835Z" fill="#1D2238"/>
</g>
<g id="Group_72">
<path id="Vector_68" d="M6.71387 111.607C6.71225 112.355 7.31729 112.963 8.06531 112.964C8.81333 112.966 9.42107 112.361 9.42269 111.613C9.42431 110.865 8.81921 110.257 8.07119 110.256C7.32317 110.254 6.71549 110.859 6.71387 111.607Z" fill="#1D2238"/>
</g>
<g id="Group_73">
<path id="Vector_69" d="M17.3495 111.716C17.1737 111.643 17.0041 111.642 16.843 111.668C16.6824 111.696 16.5296 111.758 16.3926 111.847C16.2554 111.936 16.1358 112.059 16.0467 112.203C15.9595 112.349 15.9061 112.523 15.9293 112.708L15.9579 112.725C16.001 112.666 16.0374 112.603 16.0873 112.551C16.1109 112.523 16.1318 112.494 16.1571 112.467L16.2329 112.39C16.3379 112.291 16.4511 112.2 16.574 112.123C16.6943 112.043 16.8211 111.971 16.9526 111.909C17.0184 111.878 17.0852 111.849 17.1531 111.823C17.2201 111.795 17.2889 111.77 17.3576 111.748L17.3495 111.716Z" fill="#1D2238"/>
</g>
<g id="Group_74">
<path id="Vector_70" d="M15.5781 110.955C15.4023 110.883 15.2327 110.883 15.0716 110.908C14.9109 110.935 14.7581 110.997 14.6211 111.087C14.4839 111.175 14.3644 111.299 14.2753 111.443C14.188 111.588 14.1346 111.763 14.1578 111.948L14.1864 111.964C14.2296 111.906 14.2659 111.843 14.3159 111.79C14.3395 111.763 14.3604 111.733 14.3857 111.708L14.4613 111.63C14.5665 111.531 14.6796 111.44 14.8024 111.363C14.9229 111.283 15.0496 111.211 15.1811 111.149C15.2469 111.118 15.3138 111.089 15.3816 111.063C15.4486 111.034 15.5174 111.01 15.5861 110.988L15.5781 110.955Z" fill="#1D2238"/>
</g>
<g id="Group_75">
<path id="Vector_71" d="M13.9384 110.276C13.7625 110.203 13.593 110.202 13.4319 110.228C13.2713 110.256 13.1184 110.317 12.9815 110.406C12.8442 110.496 12.7247 110.619 12.6356 110.763C12.5484 110.908 12.4949 111.083 12.5181 111.268L12.5467 111.285C12.5899 111.226 12.6263 111.163 12.6761 111.111C12.6998 111.083 12.7207 111.053 12.746 111.027L12.8217 110.95C12.9268 110.851 13.0399 110.76 13.1627 110.682C13.2831 110.603 13.4098 110.531 13.5414 110.469C13.6072 110.438 13.6741 110.409 13.7419 110.383C13.8089 110.355 13.8777 110.33 13.9465 110.307L13.9384 110.276Z" fill="#1D2238"/>
</g>
<g id="Group_76">
<path id="Vector_72" d="M22.6712 108.983L21.3318 81.4786C21.2941 80.7064 21.2026 79.9372 21.058 79.1767L18.2122 64.2289L0.96222 62.8804C0.96222 62.8804 -0.732072 69.7705 2.73946 76.4038L4.52666 109.201L13.7325 109.142L13.7313 109.04L22.6712 108.983Z" fill="#1D2238"/>
</g>
<g id="Group_77">
<path id="Vector_73" d="M12.3605 65.1348L12.4779 66.5073L12.5875 67.8798L12.8061 70.6257L13.2074 76.1196L13.3075 77.4939L13.3988 78.8679L13.5798 81.6168L13.9413 87.1137L13.9615 87.4572C13.9675 87.5715 13.9625 87.6867 13.9636 87.8013L13.9612 88.4907L13.9564 89.8677L13.947 92.6223L13.9375 95.3763L13.9314 96.7539L13.9171 98.1309L13.8588 103.639L13.8118 106.394L13.788 107.771L13.7565 109.147H13.7318L13.7257 98.1339L13.7226 92.6274L13.7211 89.8743L13.7203 88.4973L13.72 87.8088C13.7184 87.6942 13.723 87.5796 13.7166 87.4653L13.6949 87.1218L12.3359 65.1363L12.3605 65.1348Z" fill="#4A4E60"/>
</g>
<g id="Group_78">
<path id="Vector_74" d="M25.9546 55.5694L23.5903 51.8899L18.1301 53.3675L16.7011 43.5809C16.6871 43.4762 16.6743 43.3874 16.6626 43.3169C16.3051 41.1641 12.4964 37.4192 12.4964 37.4192L11.6553 38.2853L7.74005 36.1646C7.74005 36.1646 4.48571 37.4726 2.48636 40.01C0.487016 42.5483 0.982028 62.5733 0.982028 62.5733C0.982028 62.5733 5.02403 65.8483 7.94813 66.3862C10.8723 66.925 18.5456 64.8223 18.5456 64.8223C18.5456 64.8223 18.4131 63.1415 18.2172 60.7163L25.9546 55.5694Z" fill="#6395EC"/>
</g>
<g id="Group_79">
<path id="Vector_75" d="M11.6032 38.1715L9.75922 39.754C9.45856 40.0123 9.01441 40.0153 8.71216 39.7591C7.86079 39.0382 6.34978 37.555 6.82474 36.4561L7.68802 36.0508L11.6032 38.1715Z" fill="white"/>
</g>
<g id="Group_80">
<path id="Vector_76" d="M11.6406 38.1766L12.5514 39.1585C12.7984 39.4252 13.2335 39.373 13.411 39.0559L13.6783 38.578L12.4818 37.3105L11.6406 38.1766Z" fill="white"/>
</g>
<g id="Group_81">
<path id="Vector_77" d="M6.7596 42.5172L10.1633 52.2471L20.7499 46.8861L22.4252 50.9943L13.0034 58.7907C12.1082 59.5314 11.0078 59.9805 9.84996 60.0774C7.88526 60.2418 5.97531 59.3793 4.80171 57.7947C3.20709 55.6419 1.18676 52.692 0.982049 51.3099C0.639344 48.9963 -1.1075 44.5857 2.45952 40.0005L6.7596 42.5172Z" fill="#6395EC"/>
</g>
<g id="Group_82">
<path id="Vector_78" d="M17.1919 48.6793C16.6187 48.9979 16.0429 49.312 15.4652 49.6216C14.8883 49.9336 14.3085 50.239 13.7291 50.5459C13.1481 50.8498 12.5691 51.1564 11.986 51.4561C11.4034 51.757 10.8223 52.06 10.2375 52.3558L10.0718 52.4395L10.0337 52.2568C9.94614 51.8371 9.8502 51.4156 9.75111 50.9965C9.65232 50.5768 9.55248 50.1577 9.44622 49.7392C9.23232 48.9046 9.01044 48.0709 8.76072 47.2465C8.51448 46.4209 8.24496 45.6016 7.93365 44.7994C7.7763 44.3986 7.6104 44.0008 7.42089 43.6147C7.2324 43.228 7.02423 42.8491 6.76953 42.499C7.05309 42.8263 7.28928 43.1941 7.50333 43.5706C7.71396 43.951 7.90767 44.3398 8.0814 44.7376C8.43306 45.5311 8.72835 46.348 8.99913 47.1718C9.2652 47.9968 9.50823 48.829 9.72387 49.6681C9.94314 50.5069 10.14 51.3496 10.3128 52.201L10.109 52.102C10.694 51.8062 11.2826 51.5176 11.8699 51.2263C12.4565 50.9341 13.0473 50.65 13.636 50.3617C14.2264 50.0767 14.8164 49.7914 15.4092 49.5109C16.0013 49.2298 16.5953 48.9517 17.1919 48.6793Z" fill="#1D2238"/>
</g>
<g id="Group_83">
<path id="Vector_79" d="M0.954102 51.3599L1.30686 51.9983L1.65581 52.6391C1.88893 53.0657 2.12322 53.4914 2.36052 53.9156C2.59599 54.3407 2.83278 54.7649 3.07448 55.1861L3.43819 55.8167C3.56032 56.0279 3.68053 56.2403 3.79894 56.4524C4.27546 57.2972 4.74241 58.1522 5.38327 58.8569C5.54587 59.0294 5.71183 59.1983 5.89621 59.3444C5.98507 59.4212 6.08233 59.4866 6.17701 59.555C6.27634 59.6174 6.37387 59.6819 6.47827 59.7356C6.88909 59.9615 7.34341 60.1055 7.8082 60.1826C8.74096 60.3389 9.71278 60.2258 10.6215 59.9432C11.0771 59.8022 11.5194 59.6165 11.9387 59.3882C12.1478 59.2739 12.3509 59.1482 12.5474 59.0132C12.7435 58.8782 12.9276 58.7285 13.118 58.5743C13.8734 57.962 14.6324 57.3536 15.3924 56.7473L16.5372 55.8431L17.1096 55.391L17.6856 54.9431L17.1378 55.4255L16.5868 55.9034L15.4842 56.8583C14.746 57.4916 14.0069 58.1228 13.2641 58.7504C13.0804 58.9067 12.8906 59.0684 12.6898 59.2142C12.4882 59.3582 12.2786 59.4911 12.0636 59.6135C11.632 59.8559 11.1765 60.0554 10.7054 60.2081C10.2339 60.3608 9.74596 60.4628 9.25132 60.5129C8.75674 60.5597 8.25424 60.5531 7.75996 60.4718C7.26715 60.3872 6.78163 60.2318 6.34078 59.9873C6.229 59.9285 6.12403 59.8589 6.01759 59.7914C5.9158 59.717 5.81143 59.6459 5.71681 59.5631C5.52031 59.4059 5.34496 59.2268 5.17738 59.0426C4.84885 58.6682 4.56487 58.2617 4.31113 57.8417C4.05526 57.4235 3.82558 56.9918 3.59863 56.5616C3.48502 56.3465 3.37072 56.1329 3.25447 55.9208C3.13723 55.7072 3.02046 55.4936 2.90676 55.2785C2.67871 54.8486 2.4541 54.4169 2.23413 53.9825C2.01583 53.5478 1.80084 53.111 1.5871 52.6745L1.26767 52.019L0.954102 51.3599Z" fill="#1D2238"/>
</g>
<g id="Group_84">
<path id="Vector_80" d="M8.90244 55.7899C8.87625 55.7023 8.85576 55.6129 8.83623 55.5226C8.81796 55.4323 8.79483 55.3414 8.79006 55.2496C8.77605 55.0669 8.75859 54.8797 8.77554 54.6955C8.78823 54.3226 8.87652 53.9548 9.00366 53.6032C9.13116 53.2516 9.32148 52.9234 9.55122 52.6315C9.78273 52.3414 10.0583 52.0801 10.3897 51.9121C10.1828 52.216 10.0026 52.5154 9.84021 52.8223C9.67878 53.1283 9.53244 53.4373 9.41559 53.7589C9.29967 54.0796 9.19062 54.4048 9.11721 54.7438C9.0687 54.9112 9.04578 55.0837 9.00519 55.2577C8.96814 55.4317 8.94897 55.6084 8.90244 55.7899Z" fill="#1D2238"/>
</g>
<g id="Group_85">
<path id="Vector_81" d="M23.6534 54.7827L19.2833 52.9566C19.0111 52.8429 18.9477 52.4853 19.1642 52.2849L30.4375 41.8431C30.6352 41.6604 30.9535 41.7174 31.0747 41.9583L33.4606 46.6926C33.5515 46.8723 33.505 47.0919 33.349 47.2197L24.2152 54.7005C24.0575 54.8298 23.8415 54.8613 23.6534 54.7827Z" fill="#4A4E60"/>
</g>
<g id="Group_86">
<path id="Vector_82" d="M18.2301 60.8114C18.1586 60.3629 18.1007 59.9129 18.0489 59.4632C18.0219 59.2376 17.9975 59.0123 17.975 58.787C17.9512 58.5617 17.9284 58.3364 17.9091 58.1111C17.866 57.6605 17.8317 57.2081 17.7973 56.7569C17.7784 56.5316 17.7672 56.3054 17.7516 56.0792C17.7376 55.8533 17.7213 55.628 17.711 55.4012L17.707 55.313L17.7791 55.2734C18.0009 55.1531 18.2211 55.0298 18.4442 54.9116C18.6677 54.794 18.8892 54.6731 19.1142 54.5585C19.3386 54.4424 19.5633 54.3266 19.7901 54.215C20.0162 54.1019 20.244 53.9918 20.4741 53.8862C20.2663 54.0308 20.0563 54.1718 19.8446 54.3095C19.6334 54.449 19.4202 54.5843 19.2067 54.7193C18.9939 54.8558 18.7776 54.9857 18.5632 55.1192C18.3483 55.2521 18.1307 55.3799 17.9145 55.5098L17.9826 55.382C18.0044 55.6073 18.0201 55.8335 18.0378 56.0594C18.0543 56.2847 18.0749 56.5103 18.088 56.7362C18.1176 57.1883 18.1471 57.6398 18.1678 58.0928C18.1805 58.3187 18.1895 58.5449 18.1977 58.7717C18.2072 58.9976 18.2147 59.2238 18.2196 59.4506C18.2318 59.9036 18.2376 60.3572 18.2301 60.8114Z" fill="#1D2238"/>
</g>
<g id="Group_87">
<path id="Vector_83" d="M29.3215 51.2718C29.3045 51.1593 29.2728 51.0465 29.2456 50.9376C29.1891 50.7117 29.1354 50.4849 29.0804 50.2581C29.0037 49.9431 28.927 49.6284 28.8504 49.3128C28.7724 48.9927 28.4492 48.7953 28.1285 48.8736C27.8077 48.9516 27.611 49.2744 27.6889 49.5951L27.7109 49.6854C27.57 49.566 27.3762 49.5129 27.1829 49.56C26.8622 49.6377 26.6654 49.9608 26.7434 50.2815C26.7676 50.3814 26.7918 50.4804 26.8163 50.5803C26.803 50.5488 26.7758 50.5245 26.7474 50.5053C26.5547 50.3739 26.2335 50.4063 26.1058 50.6154C26.0289 50.7411 26.0537 50.8863 26.0639 51.0258C26.1104 51.6606 26.2023 52.2948 26.2718 52.9284L25.1094 54.0087L25.3753 54.4236C25.6154 54.3405 25.8375 54.2937 26.0777 54.2106C26.3966 54.1005 26.7241 54.0111 27.0331 53.8737C27.2794 53.7645 27.4908 53.6079 27.6953 53.4342C28.0879 53.0994 28.44 52.7163 28.7743 52.3242C28.9278 52.1445 29.0793 51.9618 29.2221 51.7731C29.3387 51.6189 29.3478 51.4458 29.3215 51.2718Z" fill="#EB9481"/>
</g>
<g id="Group_88">
<path id="Vector_84" d="M26.262 52.9468C26.262 52.9468 26.1314 53.4466 26.3772 53.8159C26.3772 53.8159 25.9456 53.7154 26.0965 53.1001L26.262 52.9468Z" fill="#1D2238"/>
</g>
<g id="Group_89">
<path id="Vector_85" d="M27.7188 49.6797C27.8838 49.8096 28.0135 49.9917 28.076 50.1981C28.1407 50.3991 28.1913 50.6025 28.2432 50.8059C28.2928 51.0099 28.3413 51.2139 28.3838 51.4194L28.447 51.7278C28.4652 51.8313 28.4859 51.9339 28.5018 52.0383C28.4697 51.9375 28.4421 51.837 28.412 51.7359L28.3289 51.4326C28.2735 51.2301 28.2232 51.0267 28.172 50.8233L28.0221 50.2134C27.9977 50.1129 27.9585 50.019 27.9059 49.9293C27.8548 49.839 27.7915 49.7553 27.7188 49.6797Z" fill="#1D2238"/>
</g>
<g id="Group_90">
<path id="Vector_86" d="M26.8184 50.5796C26.9739 50.6786 27.1169 50.8238 27.17 51.0134C27.2237 51.1937 27.2615 51.3758 27.3009 51.5579C27.3379 51.7406 27.3736 51.9233 27.4032 52.1075L27.4469 52.3835C27.4587 52.4762 27.4728 52.568 27.4822 52.661C27.4565 52.5707 27.4353 52.4804 27.4115 52.3901L27.3478 52.1186C27.3051 51.9374 27.2676 51.7547 27.2291 51.5732C27.1916 51.3914 27.1554 51.2078 27.1158 51.0278C27.0977 50.939 27.0578 50.8592 27.0042 50.7842C26.9527 50.7086 26.8881 50.6411 26.8184 50.5796Z" fill="#1D2238"/>
</g>
<g id="Group_91">
<path id="Vector_87" d="M19.8154 52.2239C20.2486 51.7997 20.6892 51.3842 21.1277 50.9666C21.5651 50.5466 22.0082 50.1341 22.4498 49.7195L23.7814 48.4835L25.1204 47.2556C26.017 46.4414 26.9133 45.6266 27.8171 44.8202L28.4937 44.2145L29.1738 43.6118C29.6267 43.2098 30.0806 42.809 30.537 42.4112L30.6471 42.3149L30.711 42.4418L31.2276 43.4681L31.7391 44.4965L32.244 45.5285C32.4135 45.8711 32.5794 46.217 32.7435 46.5626C32.5527 46.2308 32.3631 45.8975 32.1774 45.563L31.6164 44.5601L31.0623 43.5548L30.513 42.5462L30.687 42.5771C30.2436 42.9902 29.7979 43.3997 29.351 43.8086L28.6815 44.4224L28.0086 45.0329C27.113 45.8483 26.2099 46.655 25.307 47.4626L23.9469 48.6671L22.5793 49.8635C22.1212 50.2598 21.6647 50.6576 21.2023 51.0488C20.741 51.4415 20.2819 51.8372 19.8154 52.2239Z" fill="#1D2238"/>
</g>
</g>
</g>
</g>
</g>
</g>
</g>
<defs>
<clipPath id="clip0_2288_15234">
<rect width="174" height="115" fill="white"/>
</clipPath>
</defs>
</svg>
