<svg width="174" height="115" viewBox="0 0 174 115" fill="none" xmlns="http://www.w3.org/2000/svg">
<g id="Image 48">
<g clip-path="url(#clip0_2265_15730)">
<g id="Group">
<g id="Group_2">
<g id="Group_3">
<g id="Group_4">
<g id="Group_5">
<path id="Vector" d="M115.112 114.393H41.3881C38.8579 114.393 36.8065 112.342 36.8065 109.812V12.4284C36.8065 9.89832 38.8579 7.8468 41.3881 7.8468H115.112C117.642 7.8468 119.693 9.89832 119.693 12.4284V109.812C119.693 112.342 117.642 114.393 115.112 114.393Z" fill="#1D2238"/>
</g>
<g id="Group_6">
<path id="Vector_2" d="M114.531 108.05H41.9697V14.1915H114.531V108.05Z" fill="white"/>
</g>
<g id="Group_7">
<path id="Vector_3" d="M78.2494 6.59835C77.1541 6.59835 76.2661 5.71023 76.2661 4.61508C76.2661 3.51924 77.1541 2.63108 78.2494 2.63108C79.3453 2.63108 80.2332 3.51924 80.2332 4.61508C80.2332 5.71023 79.3453 6.59835 78.2494 6.59835ZM83.8732 5.70801C83.8408 2.62961 81.3364 0.142822 78.2494 0.142822C75.163 0.142822 72.6583 2.62961 72.6262 5.70801H67.4146V14.6188H89.0845V5.70801H83.8732Z" fill="#6395EC"/>
</g>
<g id="Group_8">
<path id="Vector_4" d="M111.667 26.6813H62.552V23.6807H111.667V26.6813Z" fill="#F1F2F5"/>
</g>
<g id="Group_9">
<path id="Vector_5" d="M111.667 32.5904H62.552V29.5905H111.667V32.5904Z" fill="#F1F2F5"/>
</g>
<g id="Group_10">
<path id="Vector_6" d="M86.3385 38.5001H62.403V35.4995H86.3385V38.5001Z" fill="#F1F2F5"/>
</g>
<g id="Group_11">
<path id="Vector_7" d="M46.7331 38.2288H59.6658V23.9518H46.7331V38.2288ZM60.1062 38.6692H46.2927V23.5114H60.1062V38.6692Z" fill="#9EA9BD"/>
</g>
<g id="Group_12">
<path id="Vector_8" d="M51.395 26.3961L54.6326 30.8985L63.5573 22.5044L65.1413 24.5515L54.1697 35.0346L49.439 28.176L51.395 26.3961Z" fill="#6395EC"/>
</g>
<g id="Group_13">
<path id="Vector_9" d="M111.667 46.1813H62.552V43.1807H111.667V46.1813Z" fill="#F1F2F5"/>
</g>
<g id="Group_14">
<path id="Vector_10" d="M111.667 52.0904H62.552V49.0907H111.667V52.0904Z" fill="#F1F2F5"/>
</g>
<g id="Group_15">
<path id="Vector_11" d="M86.3385 57.9995H62.403V54.9995H86.3385V57.9995Z" fill="#F1F2F5"/>
</g>
<g id="Group_16">
<path id="Vector_12" d="M46.7331 57.7283H59.6658V43.4519H46.7331V57.7283ZM60.1062 58.1687H46.2927V43.0115H60.1062V58.1687Z" fill="#9EA9BD"/>
</g>
<g id="Group_17">
<path id="Vector_13" d="M51.395 45.8955L54.6326 50.3985L63.5573 42.0045L65.1413 44.0508L54.1697 54.5346L49.439 47.676L51.395 45.8955Z" fill="#6395EC"/>
</g>
<g id="Group_18">
<path id="Vector_14" d="M111.667 65.6806H62.552V62.6809H111.667V65.6806Z" fill="#F1F2F5"/>
</g>
<g id="Group_19">
<path id="Vector_15" d="M111.667 71.5907H62.552V68.5901H111.667V71.5907Z" fill="#F1F2F5"/>
</g>
<g id="Group_20">
<path id="Vector_16" d="M86.3385 77.4998H62.403V74.4998H86.3385V77.4998Z" fill="#F1F2F5"/>
</g>
<g id="Group_21">
<path id="Vector_17" d="M46.7331 77.2285H59.6658V62.9521H46.7331V77.2285ZM60.1062 77.6689H46.2927V62.5117H60.1062V77.6689Z" fill="#9EA9BD"/>
</g>
<g id="Group_22">
<path id="Vector_18" d="M51.395 65.3856L54.6326 69.8889L63.5573 61.4949L65.1413 63.5412L54.1697 74.0241L49.439 67.1658L51.395 65.3856Z" fill="#6395EC"/>
</g>
<g id="Group_23">
<path id="Vector_19" d="M111.667 85.1809H62.552V82.1809H111.667V85.1809Z" fill="#F1F2F5"/>
</g>
<g id="Group_24">
<path id="Vector_20" d="M111.667 91.0901H62.552V88.0901H111.667V91.0901Z" fill="#F1F2F5"/>
</g>
<g id="Group_25">
<path id="Vector_21" d="M86.3385 96.9897H62.403V93.9891H86.3385V96.9897Z" fill="#F1F2F5"/>
</g>
<g id="Group_26">
<path id="Vector_22" d="M46.7331 96.7285H59.6658V82.4521H46.7331V96.7285ZM60.1062 97.1689H46.2927V82.0117H60.1062V97.1689Z" fill="#9EA9BD"/>
</g>
<g id="Group_27">
<path id="Vector_23" d="M51.395 84.8859L54.6326 89.3889L63.5573 80.9943L65.1413 83.0412L54.1697 93.5244L49.439 86.6658L51.395 84.8859Z" fill="#6395EC"/>
</g>
<g id="Group_28">
<path id="Vector_24" d="M157.066 114.757H134.251V91.8446H157.066V114.757Z" fill="#9EA9BD"/>
</g>
<g id="Group_29">
<path id="Vector_25" d="M147.034 95.3942H144.285V91.7666H147.034V95.3942Z" fill="#1D2238"/>
</g>
<g id="Group_30">
<path id="Vector_26" d="M173.637 114.757H157.301V91.8446H173.637V114.757Z" fill="#D2D6E1"/>
</g>
<g id="Group_31">
<path id="Vector_27" d="M166.515 95.3942H164.424V91.7666H166.515V95.3942Z" fill="#1D2238"/>
</g>
<g id="Group_32">
<path id="Vector_28" d="M152.617 91.5559H129.802V47.7067H152.617V91.5559Z" fill="#6395EC"/>
</g>
<g id="Group_33">
<path id="Vector_29" d="M142.585 54.4926H139.835V47.5497H142.585V54.4926Z" fill="#1D2238"/>
</g>
<g id="Group_34">
<path id="Vector_30" d="M169.188 91.5559H152.852V47.7067H169.188V91.5559Z" fill="#6395EC"/>
</g>
<g id="Group_35">
<path id="Vector_31" d="M162.065 54.4926H159.974V47.5497H162.065V54.4926Z" fill="#1D2238"/>
</g>
<g id="Group_36">
<path id="Vector_32" d="M120.352 114.757H91.009V91.8446H120.352V114.757Z" fill="#6395EC"/>
</g>
<g id="Group_37">
<path id="Vector_33" d="M107.449 95.3942H103.913V91.7666H107.449V95.3942Z" fill="#1D2238"/>
</g>
<g id="Group_38">
<path id="Vector_34" d="M140.068 114.757H120.651V91.8446H140.068V114.757Z" fill="#7BCCC9"/>
</g>
<g id="Group_39">
<path id="Vector_35" d="M132.708 95.3942H129.171V91.7666H132.708V95.3942Z" fill="#1D2238"/>
</g>
<g id="Group_40">
<path id="Vector_36" d="M117.436 91.6458H94.6212V68.733H117.436V91.6458Z" fill="#D2D6E1"/>
</g>
<g id="Group_41">
<path id="Vector_37" d="M107.406 72.2732H104.657V68.645H107.406V72.2732Z" fill="#1D2238"/>
</g>
<g id="Group_42">
<path id="Vector_38" d="M134.007 91.6458H117.671V68.733H134.007V91.6458Z" fill="#F1F2F5"/>
</g>
<g id="Group_43">
<path id="Vector_39" d="M126.887 72.2732H124.796V68.645H126.887V72.2732Z" fill="#1D2238"/>
</g>
<g id="Group_44">
<path id="Vector_40" d="M25.1248 46.6639L24.3678 47.1694L20.3336 41.1376C20.1938 40.9282 20.2499 40.645 20.459 40.5055C20.668 40.3654 20.9508 40.4218 21.0907 40.6312L25.1248 46.6639Z" fill="#1D2238"/>
</g>
<g id="Group_45">
<path id="Vector_41" d="M21.1477 48.298C21.1477 48.298 21.4596 45.7063 22.1075 45.5866C22.7554 45.4663 24.675 45.5146 25.059 45.5866C25.4429 45.6586 26.4987 46.3303 26.7147 47.0026L22.6114 50.9851L21.1477 48.298Z" fill="#EB9481"/>
</g>
<g id="Group_46">
<path id="Vector_42" d="M17.2735 26.3553C17.2735 26.3553 18.0893 27.3609 18.3418 28.782C18.4423 29.3471 18.2748 29.9219 17.7761 30.2067L14.9924 26.3553H17.2735Z" fill="#1D2238"/>
</g>
<g id="Group_47">
<path id="Vector_43" d="M13.2683 25.7123C10.8814 25.7123 8.92702 27.5583 8.75056 29.8997L8.71372 29.8939L7.73374 36.008C7.51801 37.3541 8.43436 38.6204 9.78043 38.8361C11.1265 39.0521 12.1589 39.4343 12.6083 36.7898L12.6778 36.356C12.8712 36.3809 13.068 36.3956 13.2683 36.3956C15.7713 36.3956 17.8004 34.3661 17.8004 31.8632V30.2447C17.8004 27.7418 15.7713 25.7123 13.2683 25.7123Z" fill="#EB9481"/>
</g>
<g id="Group_48">
<path id="Vector_44" d="M16.0708 29.451C16.1075 29.5699 16.1337 29.6888 16.1563 29.807C16.1693 29.8664 16.1769 29.9259 16.1865 29.9853C16.1958 30.0448 16.2056 30.1042 16.2112 30.1637C16.2251 30.2819 16.2385 30.4007 16.2445 30.5195L16.2564 30.6974L16.2604 30.8756L16.0594 30.6746C16.135 30.6737 16.2106 30.6695 16.2863 30.671C16.3251 30.6722 16.355 30.671 16.4205 30.6767C16.4776 30.6842 16.5337 30.6995 16.5865 30.7214C16.802 30.8102 16.9332 31.0445 16.9194 31.2626C16.9107 31.3718 16.8696 31.4759 16.8046 31.5584C16.739 31.6412 16.6479 31.6964 16.5535 31.724C16.5059 31.7381 16.4566 31.7417 16.4093 31.7402C16.3583 31.7366 16.3248 31.7279 16.2863 31.7198C16.2106 31.703 16.135 31.6838 16.0594 31.661L16.0563 31.6595C16.0504 31.658 16.047 31.6514 16.0489 31.6457C16.0503 31.6412 16.0547 31.6382 16.0594 31.6382L16.2863 31.6346C16.3241 31.634 16.3626 31.6346 16.398 31.631C16.434 31.6265 16.4691 31.6169 16.5026 31.6031C16.6372 31.5479 16.7294 31.4072 16.7269 31.2626C16.7279 31.118 16.6344 30.9791 16.5009 30.9254C16.4677 30.9122 16.4329 30.9035 16.3974 30.8999C16.3627 30.8969 16.3241 30.8984 16.2863 30.8984L16.0594 30.8978H16.0374L16.0375 30.8756C16.0407 30.4007 16.0394 29.9259 16.048 29.451C16.0481 29.4451 16.0532 29.4399 16.0594 29.4399C16.0643 29.4399 16.0685 29.4436 16.0699 29.448L16.0708 29.451Z" fill="#1D2238"/>
</g>
<g id="Group_49">
<path id="Vector_45" d="M17.3348 29.4787C17.3348 29.6527 17.194 29.7936 17.0201 29.7936C16.8464 29.7936 16.7056 29.6527 16.7056 29.4787C16.7056 29.3055 16.8464 29.1646 17.0201 29.1646C17.194 29.1646 17.3348 29.3055 17.3348 29.4787Z" fill="#1D2238"/>
</g>
<g id="Group_50">
<path id="Vector_46" d="M16.7397 32.6903C16.7397 32.6903 16.2181 31.9307 14.698 31.9505L16.7397 32.6903Z" fill="white"/>
</g>
<g id="Group_51">
<path id="Vector_47" d="M16.2254 28.1946C16.1971 28.3121 16.4408 28.4713 16.7698 28.5514C17.0988 28.6306 17.3885 28.6005 17.417 28.4831C17.4454 28.3657 17.2016 28.2064 16.8725 28.1263C16.5436 28.0471 16.2538 28.0772 16.2254 28.1946Z" fill="#1D2238"/>
</g>
<g id="Group_52">
<path id="Vector_48" d="M15.4854 29.6308C15.4854 29.8048 15.3445 29.9457 15.1708 29.9457C14.9971 29.9457 14.8562 29.8048 14.8562 29.6308C14.8562 29.4576 14.9971 29.3167 15.1708 29.3167C15.3445 29.3167 15.4854 29.4576 15.4854 29.6308Z" fill="#1D2238"/>
</g>
<g id="Group_53">
<path id="Vector_49" d="M14.3774 28.644C14.4076 28.7607 14.6977 28.7872 15.0255 28.7028C15.3534 28.6176 15.5946 28.4547 15.5644 28.338C15.5343 28.2205 15.2441 28.1948 14.9163 28.2792C14.5885 28.3636 14.3472 28.5273 14.3774 28.644Z" fill="#1D2238"/>
</g>
<g id="Group_54">
<path id="Vector_50" d="M17.0486 32.9012C16.8184 32.8844 16.5993 32.8373 16.3843 32.78C16.2756 32.7545 16.1712 32.7176 16.0646 32.6861C15.9596 32.651 15.8557 32.6126 15.7514 32.576C15.649 32.5334 15.5457 32.4938 15.4441 32.4497C15.3437 32.4029 15.2414 32.3603 15.1431 32.3075C14.9444 32.2067 14.7497 32.096 14.566 31.9565L14.5639 31.955C14.5599 31.952 14.5591 31.9463 14.5622 31.9427C14.5646 31.9388 14.5689 31.9382 14.5725 31.9397L15.8171 32.4035L17.0552 32.8844C17.0598 32.8856 17.0621 32.8916 17.0603 32.8961C17.0588 32.8997 17.0551 32.9018 17.0512 32.9018L17.0486 32.9012Z" fill="#1D2238"/>
</g>
<g id="Group_55">
<path id="Vector_51" d="M8.09239 30.2982C8.09239 30.2982 12.0401 26.8198 15.8619 26.8212C15.8619 26.8212 17.5312 26.7471 18.1478 28.1615C18.1478 28.1615 17.4123 22.3879 11.0313 23.3612C4.65007 24.3344 7.19566 30.8502 7.19566 30.8502L8.09239 30.2982Z" fill="#6395EC"/>
</g>
<g id="Group_56">
<path id="Vector_52" d="M12.5662 27.5557C12.5662 27.5557 11.7888 28.4996 10.1646 30.2157C9.76306 30.6398 9.06724 31.2272 9.06724 31.2272C9.06724 31.2272 9.23488 30.3389 8.93542 29.6916C8.93542 29.6916 10.7499 28.2266 12.5662 27.5557Z" fill="#1D2238"/>
</g>
<g id="Group_57">
<path id="Vector_53" d="M15.1318 26.7371C15.1318 26.7371 15.6314 27.6421 16.9052 27.7045C16.9052 27.7045 14.8698 28.3731 14.076 26.958L15.1318 26.7371Z" fill="#1D2238"/>
</g>
<g id="Group_58">
<path id="Vector_54" d="M8.35919 31.7807L8.05853 33.554L7.13489 30.8882L8.68436 29.8848L8.35919 31.7807Z" fill="#1D2238"/>
</g>
<g id="Group_59">
<path id="Vector_55" d="M7.41882 30.5494C7.41882 31.1662 7.82283 31.666 8.32113 31.666C8.81952 31.666 9.22353 31.1662 9.22353 30.5494C9.22353 29.933 8.81952 29.4331 8.32113 29.4331C7.82283 29.4331 7.41882 29.933 7.41882 30.5494Z" fill="#EB9481"/>
</g>
<g id="Group_60">
<path id="Vector_56" d="M8.83786 30.2431C8.755 30.1756 8.67499 30.1242 8.59396 30.1029C8.5549 30.0904 8.51683 30.0846 8.48092 30.086C8.44539 30.0875 8.41243 30.089 8.38177 30.1014C8.26396 30.1425 8.17476 30.2438 8.12286 30.3774C8.10825 30.4104 8.10027 30.4458 8.09124 30.4809C8.08851 30.4992 8.08369 30.5175 8.08177 30.5361L8.07891 30.564L8.07612 30.5844C8.0748 30.5904 8.07538 30.5889 8.07364 30.591C8.07268 30.588 8.0707 30.5865 8.06548 30.5784C8.05735 30.5616 8.02296 30.5403 8.00916 30.5412C7.98222 30.5427 8.02416 30.5529 8.06157 30.5478C8.14248 30.5388 8.24479 30.5169 8.34784 30.5007C8.45164 30.4896 8.56767 30.4737 8.67528 30.5139L8.67868 30.5154C8.68447 30.5175 8.68732 30.5235 8.68519 30.5295C8.68357 30.5337 8.67954 30.5367 8.67528 30.5367C8.57811 30.5412 8.48401 30.5784 8.39212 30.6153C8.29933 30.6519 8.20816 30.693 8.10982 30.7224C8.06071 30.735 8.00844 30.7488 7.95132 30.7341C7.92306 30.7269 7.89621 30.7056 7.88241 30.6792C7.86759 30.6534 7.86313 30.6255 7.86112 30.5991C7.85695 30.495 7.87309 30.3921 7.91023 30.2952C7.94746 30.1991 8.0061 30.1103 8.08479 30.0427C8.16222 29.9737 8.26234 29.9275 8.36671 29.9201C8.47102 29.9106 8.57679 29.9422 8.6622 29.9994C8.74773 30.0581 8.81365 30.1411 8.8582 30.2321C8.86084 30.238 8.85855 30.2446 8.85312 30.2468C8.84916 30.249 8.84469 30.2483 8.84145 30.2453L8.83786 30.2431Z" fill="#1D2238"/>
</g>
<g id="Group_61">
<path id="Vector_57" d="M13.4861 27.2265C13.4861 27.2265 16.1939 23.5976 19.4668 24.4748C22.7396 25.3519 18.2048 28.1594 18.2048 28.1594C18.2048 28.1594 16.9437 26.0345 13.4861 27.2265Z" fill="#F1F2F5"/>
</g>
<g id="Group_62">
<path id="Vector_58" d="M10.7077 23.5113C10.7385 23.6706 10.3976 23.871 9.94638 23.9583C9.49503 24.045 9.10419 23.987 9.07335 23.827C9.04254 23.6677 9.3834 23.468 9.83472 23.3807C10.2861 23.2933 10.6769 23.3521 10.7077 23.5113Z" fill="#1D2238"/>
</g>
<g id="Group_63">
<path id="Vector_59" d="M12.6581 36.3769C12.6581 36.3769 11.6804 35.8462 10.6401 34.7872C10.6401 34.7872 11.0759 36.2992 12.5886 36.8107L12.6581 36.3769Z" fill="#1D2238"/>
</g>
<g id="Group_64">
<path id="Vector_60" d="M20.4115 109.26L27.2708 112.251C28.2943 112.696 28.9481 113.716 28.9271 114.832L14.0137 114.8L14.8073 109.247L20.4115 109.26Z" fill="#4A4E60"/>
</g>
<g id="Group_65">
<path id="Vector_61" d="M14.0199 113.836C15.2483 113.906 16.4767 113.945 17.7052 113.972C18.3195 113.988 18.9337 113.993 19.548 114.003L21.3908 114.016L23.2336 114.012C23.8479 114.004 24.4622 114.002 25.0766 113.988C26.3051 113.966 27.5338 113.933 28.7624 113.867C27.5341 113.796 26.3056 113.757 25.0771 113.731C24.4629 113.714 23.8486 113.71 23.2343 113.699L21.3915 113.686L19.5487 113.691C18.9344 113.699 18.3201 113.702 17.7058 113.715C16.4772 113.737 15.2486 113.77 14.0199 113.836Z" fill="#1D2238"/>
</g>
<g id="Group_66">
<path id="Vector_62" d="M15.7662 111.607C15.7646 112.355 16.3697 112.963 17.1177 112.964C17.8657 112.966 18.4734 112.361 18.4751 111.613C18.4767 110.865 17.8715 110.257 17.1235 110.256C16.3755 110.254 15.7678 110.859 15.7662 111.607Z" fill="#1D2238"/>
</g>
<g id="Group_67">
<path id="Vector_63" d="M26.3989 111.716C26.2231 111.643 26.0536 111.643 25.8925 111.668C25.7318 111.696 25.579 111.758 25.442 111.847C25.3047 111.936 25.1852 112.059 25.0961 112.204C25.0089 112.349 24.9555 112.523 24.9787 112.708L25.0073 112.725C25.0505 112.666 25.0868 112.603 25.1367 112.551C25.1604 112.523 25.1813 112.494 25.2065 112.468L25.2823 112.39C25.3874 112.291 25.5005 112.201 25.6233 112.123C25.7438 112.043 25.8704 111.971 26.002 111.909C26.0678 111.878 26.1347 111.85 26.2025 111.823C26.2694 111.795 26.3382 111.77 26.407 111.748L26.3989 111.716Z" fill="#1D2238"/>
</g>
<g id="Group_68">
<path id="Vector_64" d="M24.6302 110.956C24.4543 110.883 24.2848 110.883 24.1237 110.908C23.963 110.936 23.8102 110.998 23.6733 111.087C23.536 111.176 23.4165 111.299 23.3274 111.443C23.2401 111.588 23.1867 111.763 23.2099 111.948L23.2385 111.965C23.2817 111.906 23.3181 111.843 23.368 111.79C23.3916 111.763 23.4125 111.734 23.4378 111.708L23.5135 111.63C23.6186 111.531 23.7317 111.44 23.8546 111.363C23.9749 111.283 24.1017 111.211 24.2332 111.15C24.2991 111.119 24.3659 111.09 24.4337 111.064C24.5007 111.035 24.5695 111.01 24.6383 110.988L24.6302 110.956Z" fill="#1D2238"/>
</g>
<g id="Group_69">
<path id="Vector_65" d="M22.9875 110.276C22.8117 110.204 22.6422 110.203 22.4811 110.229C22.3205 110.257 22.1677 110.317 22.0306 110.407C21.8934 110.496 21.7739 110.619 21.6848 110.763C21.5976 110.908 21.5441 111.084 21.5673 111.269L21.596 111.285C21.6391 111.226 21.6754 111.164 21.7254 111.111C21.749 111.083 21.7699 111.054 21.7952 111.028L21.8709 110.95C21.976 110.851 22.0891 110.76 22.2119 110.683C22.3324 110.603 22.4591 110.531 22.5906 110.469C22.6564 110.439 22.7233 110.41 22.7911 110.383C22.8581 110.356 22.9269 110.33 22.9957 110.308L22.9875 110.276Z" fill="#1D2238"/>
</g>
<g id="Group_70">
<path id="Vector_66" d="M11.3705 109.26L18.2298 112.251C19.2533 112.696 19.907 113.716 19.8861 114.832L4.97266 114.8L5.76634 109.247L11.3705 109.26Z" fill="#9EA9BD"/>
</g>
<g id="Group_71">
<path id="Vector_67" d="M4.9679 113.836C6.19631 113.906 7.42481 113.945 8.65331 113.972C9.26753 113.988 9.88181 113.993 10.496 114.003L12.3389 114.016L14.1817 114.012C14.7959 114.004 15.4102 114.002 16.0246 113.988C17.2531 113.966 18.4818 113.933 19.7105 113.867C18.4821 113.796 17.2536 113.757 16.0251 113.731C15.4109 113.714 14.7966 113.71 14.1824 113.699L12.3395 113.686L10.4967 113.691C9.88241 113.699 9.2681 113.702 8.65382 113.715C7.42526 113.737 6.19661 113.77 4.9679 113.836Z" fill="#1D2238"/>
</g>
<g id="Group_72">
<path id="Vector_68" d="M6.71424 111.607C6.71262 112.355 7.31766 112.963 8.06568 112.964C8.8137 112.966 9.42144 112.361 9.42306 111.613C9.42468 110.865 8.81958 110.257 8.07156 110.256C7.32354 110.254 6.71586 110.859 6.71424 111.607Z" fill="#1D2238"/>
</g>
<g id="Group_73">
<path id="Vector_69" d="M17.3499 111.716C17.174 111.643 17.0045 111.643 16.8434 111.668C16.6828 111.696 16.53 111.758 16.393 111.847C16.2557 111.936 16.1362 112.059 16.0471 112.204C15.9599 112.349 15.9064 112.523 15.9296 112.708L15.9583 112.725C16.0014 112.666 16.0377 112.603 16.0877 112.551C16.1113 112.523 16.1322 112.494 16.1575 112.468L16.2332 112.39C16.3383 112.291 16.4514 112.201 16.5743 112.123C16.6947 112.043 16.8214 111.971 16.953 111.909C17.0187 111.878 17.0856 111.85 17.1534 111.823C17.2205 111.795 17.2892 111.77 17.358 111.748L17.3499 111.716Z" fill="#1D2238"/>
</g>
<g id="Group_74">
<path id="Vector_70" d="M15.5781 110.956C15.4023 110.883 15.2327 110.883 15.0716 110.908C14.9109 110.936 14.7581 110.998 14.6211 111.087C14.4839 111.176 14.3644 111.299 14.2753 111.443C14.188 111.588 14.1346 111.763 14.1578 111.948L14.1864 111.965C14.2296 111.906 14.2659 111.843 14.3159 111.79C14.3395 111.763 14.3604 111.734 14.3857 111.708L14.4613 111.63C14.5665 111.531 14.6796 111.44 14.8024 111.363C14.9229 111.283 15.0496 111.211 15.1811 111.15C15.2469 111.119 15.3138 111.09 15.3816 111.064C15.4486 111.035 15.5174 111.01 15.5861 110.988L15.5781 110.956Z" fill="#1D2238"/>
</g>
<g id="Group_75">
<path id="Vector_71" d="M13.9387 110.276C13.7628 110.204 13.5932 110.203 13.4322 110.229C13.2715 110.257 13.1187 110.317 12.9817 110.407C12.8445 110.496 12.7249 110.619 12.6359 110.763C12.5486 110.908 12.4952 111.084 12.5184 111.269L12.547 111.285C12.5901 111.226 12.6265 111.164 12.6764 111.111C12.7 111.083 12.7209 111.054 12.7463 111.028L12.8219 110.95C12.9271 110.851 13.0402 110.76 13.1629 110.683C13.2834 110.603 13.4101 110.531 13.5417 110.469C13.6075 110.439 13.6743 110.41 13.7422 110.383C13.8092 110.356 13.8779 110.33 13.9467 110.308L13.9387 110.276Z" fill="#1D2238"/>
</g>
<g id="Group_76">
<path id="Vector_72" d="M22.6706 108.983L21.3312 81.4788C21.2935 80.7066 21.202 79.9374 21.0573 79.1769L18.2116 64.2291L0.96161 62.8806C0.96161 62.8806 -0.732682 69.7707 2.73885 76.404L4.52605 109.201L13.7319 109.142L13.7307 109.04L22.6706 108.983Z" fill="#1D2238"/>
</g>
<g id="Group_77">
<path id="Vector_73" d="M12.3609 65.1348L12.4782 66.5073L12.5878 67.8798L12.8064 70.6257L13.2078 76.1196L13.3079 77.4939L13.3992 78.8679L13.5802 81.6168L13.9417 87.1137L13.9619 87.4572C13.9679 87.5715 13.9629 87.6867 13.9639 87.8013L13.9616 88.4907L13.9568 89.8677L13.9474 92.6223L13.9379 95.3763L13.9318 96.7539L13.9175 98.1309L13.8591 103.639L13.8122 106.394L13.7884 107.771L13.7569 109.147H13.7322L13.7261 98.1339L13.723 92.6274L13.7215 89.8743L13.7207 88.4973L13.7203 87.8088C13.7188 87.6942 13.7234 87.5796 13.7169 87.4653L13.6953 87.1218L12.3363 65.1363L12.3609 65.1348Z" fill="#4A4E60"/>
</g>
<g id="Group_78">
<path id="Vector_74" d="M25.9547 55.5698L23.5904 51.8903L18.1302 53.3678L16.7013 43.5812C16.6873 43.4765 16.6744 43.3877 16.6627 43.3172C16.3052 41.1644 12.4966 37.4195 12.4966 37.4195L11.6554 38.2856L7.74018 36.1649C7.74018 36.1649 4.48584 37.4729 2.48648 40.0103C0.487138 42.5486 0.98215 62.5736 0.98215 62.5736C0.98215 62.5736 5.02416 65.8487 7.94826 66.3866C10.8724 66.9254 18.5458 64.8227 18.5458 64.8227C18.5458 64.8227 18.4132 63.1418 18.2173 60.7166L25.9547 55.5698Z" fill="#6395EC"/>
</g>
<g id="Group_79">
<path id="Vector_75" d="M11.6029 38.1716L9.75885 39.7541C9.45819 40.0124 9.01404 40.0154 8.71179 39.7592C7.86042 39.0383 6.34941 37.5551 6.82437 36.4562L7.68765 36.0509L11.6029 38.1716Z" fill="white"/>
</g>
<g id="Group_80">
<path id="Vector_76" d="M11.6403 38.1766L12.551 39.1585C12.7981 39.4252 13.2332 39.373 13.4106 39.0559L13.678 38.578L12.4814 37.3105L11.6403 38.1766Z" fill="white"/>
</g>
<g id="Group_81">
<path id="Vector_77" d="M6.75947 42.5173L10.1632 52.2472L20.7498 46.8862L22.4251 50.9944L13.0033 58.7908C12.1081 59.5315 11.0077 59.9806 9.84983 60.0775C7.88513 60.2419 5.97518 59.3794 4.80158 57.7948C3.20696 55.642 1.18664 52.6921 0.981927 51.31C0.639222 48.9964 -1.10762 44.5858 2.4594 40.0006L6.75947 42.5173Z" fill="#6395EC"/>
</g>
<g id="Group_82">
<path id="Vector_78" d="M17.1914 48.6797C16.6182 48.9983 16.0424 49.3124 15.4648 49.622C14.8878 49.934 14.308 50.2394 13.7286 50.5463C13.1476 50.8502 12.5686 51.1568 11.9855 51.4565C11.4029 51.7574 10.8218 52.0604 10.237 52.3562L10.0713 52.4399L10.0332 52.2572C9.94565 51.8375 9.84971 51.416 9.75062 50.9969C9.65183 50.5772 9.55199 50.1581 9.44573 49.7396C9.23183 48.905 9.00995 48.0713 8.76023 47.2469C8.51399 46.4213 8.24447 45.602 7.93316 44.7998C7.77581 44.399 7.60991 44.0012 7.4204 43.6151C7.23191 43.2284 7.02374 42.8495 6.76904 42.4994C7.0526 42.8267 7.28879 43.1945 7.50284 43.571C7.71347 43.9514 7.90718 44.3402 8.08091 44.738C8.43257 45.5315 8.72786 46.3484 8.99864 47.1722C9.26471 47.9972 9.50774 48.8294 9.72338 49.6685C9.94265 50.5073 10.1395 51.35 10.3123 52.2014L10.1085 52.1024C10.6935 51.8066 11.2821 51.518 11.8694 51.2267C12.456 50.9345 13.0468 50.6504 13.6355 50.3621C14.2259 50.0771 14.8159 49.7918 15.4087 49.5113C16.0009 49.2302 16.5948 48.9521 17.1914 48.6797Z" fill="#1D2238"/>
</g>
<g id="Group_83">
<path id="Vector_79" d="M0.953735 51.3601L1.3065 51.9985L1.65544 52.6393C1.88856 53.0659 2.12285 53.4916 2.36015 53.9158C2.59562 54.3409 2.83241 54.7651 3.07411 55.1863L3.43783 55.8169C3.55996 56.0281 3.68017 56.2405 3.79857 56.4526C4.27509 57.2974 4.74205 58.1524 5.38291 58.8571C5.54551 59.0296 5.71146 59.1985 5.89584 59.3446C5.9847 59.4214 6.08196 59.4868 6.17665 59.5552C6.27598 59.6176 6.37351 59.6821 6.47791 59.7358C6.88873 59.9617 7.34305 60.1057 7.80784 60.1828C8.74059 60.3391 9.71242 60.226 10.6211 59.9434C11.0767 59.8024 11.519 59.6167 11.9384 59.3884C12.1474 59.2741 12.3506 59.1484 12.5471 59.0134C12.7431 58.8784 12.9272 58.7287 13.1177 58.5745C13.873 57.9622 14.6321 57.3538 15.392 56.7475L16.5368 55.8433L17.1092 55.3912L17.6852 54.9433L17.1375 55.4257L16.5864 55.9036L15.4838 56.8585C14.7457 57.4918 14.0065 58.123 13.2637 58.7506C13.0801 58.9069 12.8903 59.0686 12.6894 59.2144C12.4878 59.3584 12.2783 59.4913 12.0632 59.6137C11.6317 59.8561 11.1761 60.0556 10.705 60.2083C10.2335 60.361 9.74559 60.463 9.25095 60.5131C8.75637 60.5599 8.25387 60.5533 7.75959 60.472C7.26678 60.3874 6.78127 60.232 6.34042 59.9875C6.22864 59.9287 6.12366 59.8591 6.01722 59.7916C5.91543 59.7172 5.81107 59.6461 5.71644 59.5633C5.51995 59.4061 5.3446 59.227 5.17702 59.0428C4.84849 58.6684 4.56451 58.2619 4.31077 57.8419C4.0549 57.4237 3.82522 56.992 3.59827 56.5618C3.48466 56.3467 3.37036 56.1331 3.25411 55.921C3.13687 55.7074 3.02009 55.4938 2.9064 55.2787C2.67834 54.8488 2.45374 54.4171 2.23376 53.9827C2.01547 53.548 1.80048 53.1112 1.58674 52.6747L1.2673 52.0192L0.953735 51.3601Z" fill="#1D2238"/>
</g>
<g id="Group_84">
<path id="Vector_80" d="M8.90244 55.7902C8.87625 55.7026 8.85576 55.6132 8.83623 55.5229C8.81796 55.4326 8.79483 55.3417 8.79006 55.2499C8.77605 55.0672 8.75859 54.88 8.77554 54.6958C8.78823 54.3229 8.87652 53.9551 9.00366 53.6035C9.13116 53.2519 9.32148 52.9237 9.55122 52.6318C9.78273 52.3417 10.0583 52.0804 10.3897 51.9124C10.1828 52.2163 10.0026 52.5157 9.84021 52.8226C9.67878 53.1286 9.53244 53.4376 9.41559 53.7592C9.29967 54.0799 9.19062 54.4051 9.11721 54.7441C9.0687 54.9115 9.04578 55.084 9.00519 55.258C8.96814 55.432 8.94897 55.6087 8.90244 55.7902Z" fill="#1D2238"/>
</g>
<g id="Group_85">
<path id="Vector_81" d="M23.6529 54.7828L19.2828 52.9567C19.0107 52.843 18.9472 52.4854 19.1637 52.285L30.437 41.8432C30.6347 41.6605 30.953 41.7175 31.0742 41.9584L33.4601 46.6927C33.551 46.8724 33.5045 47.092 33.3485 47.2198L24.2147 54.7006C24.057 54.8299 23.841 54.8614 23.6529 54.7828Z" fill="#4A4E60"/>
</g>
<g id="Group_86">
<path id="Vector_82" d="M18.2295 60.8118C18.158 60.3633 18.1001 59.9133 18.0483 59.4636C18.0213 59.238 17.9969 59.0127 17.9744 58.7874C17.9506 58.5621 17.9278 58.3368 17.9085 58.1115C17.8654 57.6609 17.831 57.2085 17.7967 56.7573C17.7778 56.532 17.7665 56.3058 17.751 56.0796C17.737 55.8537 17.7206 55.6284 17.7104 55.4016L17.7064 55.3134L17.7785 55.2738C18.0003 55.1535 18.2205 55.0302 18.4436 54.912C18.6671 54.7944 18.8886 54.6735 19.1136 54.5589C19.338 54.4428 19.5627 54.327 19.7894 54.2154C20.0156 54.1023 20.2434 53.9922 20.4735 53.8866C20.2657 54.0312 20.0557 54.1722 19.844 54.3099C19.6328 54.4494 19.4196 54.5847 19.2061 54.7197C18.9933 54.8562 18.7769 54.9861 18.5626 55.1196C18.3477 55.2525 18.1301 55.3803 17.9139 55.5102L17.982 55.3824C18.0038 55.6077 18.0195 55.8339 18.0372 56.0598C18.0537 56.2851 18.0743 56.5107 18.0874 56.7366C18.1169 57.1887 18.1465 57.6402 18.1672 58.0932C18.1799 58.3191 18.1889 58.5453 18.1971 58.7721C18.2066 58.998 18.2141 59.2242 18.219 59.451C18.2312 59.904 18.237 60.3576 18.2295 60.8118Z" fill="#1D2238"/>
</g>
<g id="Group_87">
<path id="Vector_83" d="M29.3212 51.2723C29.3043 51.1598 29.2726 51.047 29.2454 50.9381C29.1888 50.7122 29.1352 50.4854 29.0801 50.2586C29.0035 49.9436 28.9268 49.6289 28.8502 49.3133C28.7721 48.9932 28.449 48.7958 28.1282 48.8741C27.8075 48.9521 27.6107 49.2749 27.6887 49.5956L27.7106 49.6859C27.5698 49.5665 27.3759 49.5134 27.1827 49.5605C26.8619 49.6382 26.6652 49.9613 26.7431 50.282C26.7674 50.3819 26.7916 50.4809 26.8161 50.5808C26.8027 50.5493 26.7756 50.525 26.7472 50.5058C26.5545 50.3744 26.2332 50.4068 26.1055 50.6159C26.0287 50.7416 26.0534 50.8868 26.0636 51.0263C26.1101 51.6611 26.202 52.2953 26.2715 52.9289L25.1091 54.0092L25.3751 54.4241C25.6151 54.341 25.8372 54.2942 26.0774 54.2111C26.3964 54.101 26.7239 54.0116 27.0329 53.8742C27.2792 53.765 27.4906 53.6084 27.6951 53.4347C28.0876 53.0999 28.4398 52.7168 28.7741 52.3247C28.9276 52.145 29.079 51.9623 29.2219 51.7736C29.3385 51.6194 29.3476 51.4463 29.3212 51.2723Z" fill="#EB9481"/>
</g>
<g id="Group_88">
<path id="Vector_84" d="M26.2622 52.9469C26.2622 52.9469 26.1317 53.4467 26.3775 53.816C26.3775 53.816 25.9458 53.7155 26.0967 53.1002L26.2622 52.9469Z" fill="#1D2238"/>
</g>
<g id="Group_89">
<path id="Vector_85" d="M27.7186 49.6798C27.8837 49.8097 28.0134 49.9918 28.0759 50.1982C28.1405 50.3992 28.1912 50.6026 28.2431 50.806C28.2927 51.01 28.3412 51.214 28.3837 51.4195L28.4468 51.7279C28.4651 51.8314 28.4858 51.934 28.5017 52.0384C28.4696 51.9376 28.442 51.8371 28.4118 51.736L28.3288 51.4327C28.2734 51.2302 28.223 51.0268 28.1719 50.8234L28.022 50.2135C27.9976 50.113 27.9584 50.0191 27.9057 49.9294C27.8546 49.8391 27.7914 49.7554 27.7186 49.6798Z" fill="#1D2238"/>
</g>
<g id="Group_90">
<path id="Vector_86" d="M26.8185 50.5797C26.974 50.6787 27.117 50.8239 27.1701 51.0135C27.2238 51.1938 27.2617 51.3759 27.301 51.558C27.338 51.7407 27.3738 51.9234 27.4033 52.1076L27.447 52.3836C27.4588 52.4763 27.473 52.5681 27.4823 52.6611C27.4566 52.5708 27.4355 52.4805 27.4117 52.3902L27.3479 52.1187C27.3053 51.9375 27.2678 51.7548 27.2292 51.5733C27.1918 51.3915 27.1555 51.2079 27.116 51.0279C27.0978 50.9391 27.058 50.8593 27.0043 50.7843C26.9528 50.7087 26.8883 50.6412 26.8185 50.5797Z" fill="#1D2238"/>
</g>
<g id="Group_91">
<path id="Vector_87" d="M19.8151 52.2243C20.2483 51.8001 20.6889 51.3846 21.1273 50.967C21.5647 50.547 22.0078 50.1345 22.4495 49.7199L23.781 48.4839L25.1201 47.256C26.0166 46.4418 26.9129 45.627 27.8168 44.8206L28.4933 44.2149L29.1734 43.6122C29.6263 43.2102 30.0803 42.8094 30.5366 42.4116L30.6467 42.3153L30.7106 42.4422L31.2272 43.4685L31.7387 44.4969L32.2436 45.5289C32.4131 45.8715 32.579 46.2174 32.7431 46.563C32.5523 46.2312 32.3627 45.8979 32.177 45.5634L31.616 44.5605L31.0619 43.5552L30.5126 42.5466L30.6866 42.5775C30.2433 42.9906 29.7975 43.4001 29.3507 43.809L28.6812 44.4228L28.0082 45.0333C27.1126 45.8487 26.2095 46.6554 25.3067 47.463L23.9465 48.6675L22.5789 49.8639C22.1208 50.2602 21.6643 50.658 21.202 51.0492C20.7406 51.4419 20.2815 51.8376 19.8151 52.2243Z" fill="#1D2238"/>
</g>
</g>
</g>
</g>
</g>
</g>
</g>
<defs>
<clipPath id="clip0_2265_15730">
<rect width="174" height="115" fill="white"/>
</clipPath>
</defs>
</svg>
