<svg width="24" height="24" viewBox="0 0 24 24" fill="none" xmlns="http://www.w3.org/2000/svg">
<g id="Shopping cart">
<path id="Vector" d="M6.85714 21.4286C7.33053 21.4286 7.71429 21.0449 7.71429 20.5715C7.71429 20.0981 7.33053 19.7144 6.85714 19.7144C6.38376 19.7144 6 20.0981 6 20.5715C6 21.0449 6.38376 21.4286 6.85714 21.4286Z" fill="#565E6C"/>
<path id="Vector_2" d="M18.8571 21.4286C19.3305 21.4286 19.7143 21.0449 19.7143 20.5715C19.7143 20.0981 19.3305 19.7144 18.8571 19.7144C18.3838 19.7144 18 20.0981 18 20.5715C18 21.0449 18.3838 21.4286 18.8571 21.4286Z" fill="#565E6C"/>
<path id="Vector_3" d="M6.85714 21.4286C7.33053 21.4286 7.71429 21.0449 7.71429 20.5715C7.71429 20.0981 7.33053 19.7144 6.85714 19.7144C6.38376 19.7144 6 20.0981 6 20.5715C6 21.0449 6.38376 21.4286 6.85714 21.4286Z" stroke="#565E6C" stroke-width="2.05714" stroke-miterlimit="10" stroke-linecap="square"/>
<path id="Vector_4" d="M18.8571 21.4286C19.3305 21.4286 19.7143 21.0449 19.7143 20.5715C19.7143 20.0981 19.3305 19.7144 18.8571 19.7144C18.3838 19.7144 18 20.0981 18 20.5715C18 21.0449 18.3838 21.4286 18.8571 21.4286Z" stroke="#565E6C" stroke-width="2.05714" stroke-miterlimit="10" stroke-linecap="square"/>
<path id="Vector_5" d="M5.82868 7.71443L20.5715 7.71443L19.1332 14.9076C18.973 15.709 18.2692 16.2859 17.4524 16.2859L8.3581 16.2859C7.49925 16.2859 6.77239 15.6499 6.65925 14.7979L5.14296 3.42871L2.57153 3.42871" stroke="#565E6C" stroke-width="2.05714" stroke-miterlimit="10" stroke-linecap="square"/>
</g>
</svg>
