<svg width="46" height="31" viewBox="0 0 46 31" fill="none" xmlns="http://www.w3.org/2000/svg">
<g id="Group 1">
<rect id="Rectangle 7" width="46" height="31" rx="9" fill="#6395EC"/>
<path id="search" d="M33 29.7446L24.8958 21.2055C24.2708 21.7616 23.5454 22.197 22.7196 22.5117C21.8938 22.8263 21.015 22.9836 20.0833 22.9836C17.8242 22.9836 15.9121 22.1586 14.3473 20.5086C12.7824 18.8586 12 16.8592 12 14.5104C12 12.1616 12.783 10.1622 14.349 8.51214C15.9149 6.86212 17.816 6.03711 20.0521 6.03711C22.2882 6.03711 24.1858 6.86212 25.7448 8.51214C27.3038 10.1622 28.0833 12.1627 28.0833 14.5137C28.0833 15.4627 27.9375 16.3726 27.6458 17.2433C27.3542 18.114 26.9306 18.9153 26.375 19.647L34.5 28.1641L33 29.7446ZM20.0625 20.7885C21.7118 20.7885 23.1137 20.1757 24.2682 18.95C25.4227 17.7244 26 16.2445 26 14.5104C26 12.7762 25.4227 11.2963 24.2682 10.0707C23.1137 8.84507 21.7118 8.23226 20.0625 8.23226C18.4016 8.23226 16.9899 8.84507 15.8273 10.0707C14.6646 11.2963 14.0833 12.7762 14.0833 14.5104C14.0833 16.2445 14.6646 17.7244 15.8273 18.95C16.9899 20.1757 18.4016 20.7885 20.0625 20.7885Z" fill="#F4FFFC"/>
</g>
</svg>
