<svg width="30" height="31" viewBox="0 0 30 31" fill="none" xmlns="http://www.w3.org/2000/svg">
<g id="account">
<path id="account_circle" d="M5.32292 23.7404C6.75695 22.6563 8.23148 21.8176 9.74652 21.2243C11.2616 20.631 12.8739 20.3343 14.5833 20.3343C16.2928 20.3343 17.9091 20.631 19.4323 21.2243C20.9555 21.8176 22.434 22.6563 23.8681 23.7404C24.8646 22.4685 25.5917 21.141 26.0495 19.7581C26.5073 18.3751 26.7361 16.9111 26.7361 15.366C26.7361 11.755 25.5674 8.71805 23.2301 6.25522C20.8927 3.79239 18.0104 2.56097 14.5833 2.56097C11.1563 2.56097 8.27401 3.79239 5.93662 6.25522C3.59923 8.71805 2.43053 11.755 2.43053 15.366C2.43053 16.9111 2.66346 18.3751 3.12933 19.7581C3.59519 21.141 4.32639 22.4685 5.32292 23.7404ZM14.5788 16.6465C13.164 16.6465 11.9725 16.1348 11.0043 15.1115C10.0362 14.0882 9.55208 12.8312 9.55208 11.3404C9.55208 9.84971 10.0377 8.59428 11.0089 7.57416C11.9801 6.55401 13.1731 6.04394 14.5879 6.04394C16.0027 6.04394 17.1942 6.5556 18.1623 7.57892C19.1305 8.60222 19.6146 9.85923 19.6146 11.35C19.6146 12.8407 19.129 14.0962 18.1578 15.1163C17.1866 16.1364 15.9936 16.6465 14.5788 16.6465ZM14.5947 30.732C12.586 30.732 10.6945 30.3286 8.92015 29.5219C7.14585 28.7152 5.59839 27.6161 4.27777 26.2246C2.95717 24.8331 1.91406 23.2046 1.14844 21.3391C0.382813 19.4735 0 17.4802 0 15.3592C0 13.2381 0.382813 11.247 1.14844 9.38604C1.91406 7.52507 2.95717 5.89883 4.27777 4.50734C5.59839 3.11587 7.14395 2.01678 8.91446 1.21007C10.685 0.403357 12.5768 0 14.5898 0C16.6028 0 18.4925 0.403357 20.2587 1.21007C22.0249 2.01678 23.5683 3.11587 24.8889 4.50734C26.2095 5.89883 27.2526 7.52535 28.0182 9.38688C28.7839 11.2484 29.1667 13.2375 29.1667 15.354C29.1667 17.4705 28.7839 19.4636 28.0182 21.3331C27.2526 23.2026 26.2095 24.8331 24.8889 26.2246C23.5683 27.6161 22.0246 28.7152 20.2579 29.5219C18.4912 30.3286 16.6034 30.732 14.5947 30.732ZM14.5833 28.171C15.9039 28.171 17.18 27.9682 18.4115 27.5627C19.643 27.1572 20.8299 26.4892 21.9722 25.5587C20.8299 24.6965 19.6389 24.0371 18.3993 23.5804C17.1597 23.1237 15.8877 22.8953 14.5833 22.8953C13.2789 22.8953 12.0069 23.1237 10.7674 23.5804C9.52777 24.0371 8.3368 24.6965 7.19443 25.5587C8.3368 26.4892 9.52372 27.1572 10.7552 27.5627C11.9867 27.9682 13.2627 28.171 14.5833 28.171ZM14.5833 14.0855C15.3449 14.0855 15.9688 13.8294 16.4549 13.3172C16.941 12.805 17.1841 12.1477 17.1841 11.3452C17.1841 10.5428 16.941 9.88545 16.4549 9.37325C15.9688 8.86105 15.3449 8.60495 14.5833 8.60495C13.8218 8.60495 13.1979 8.86105 12.7118 9.37325C12.2257 9.88545 11.9826 10.5428 11.9826 11.3452C11.9826 12.1477 12.2257 12.805 12.7118 13.3172C13.1979 13.8294 13.8218 14.0855 14.5833 14.0855Z" fill="#4B465A"/>
</g>
</svg>
